<svg xmlns="http://www.w3.org/2000/svg" width="276" height="98" fill="none" viewBox="0 0 276 98">
    <g clip-path="url(#clip0)">
        <path fill="#38ADD6" d="M73.029 54.128l-23.59-24.167s10.848-15.424 24.395-3.758c0 0 2.439 2.505 4.204 5.272 2.88 4.463 4.775 11.274-5.009 22.653z"/>
        <g opacity=".2">
            <mask id="r5b60txf1a" width="68" height="69" x="32" y="0" maskUnits="userSpaceOnUse">
                <path fill="url(#paint0_linear)" d="M75.053 68.3l-42.25-23.384L57.198.339l42.25 23.41L75.053 68.3z" opacity=".2"/>
            </mask>
            <g mask="url(#r5b60txf1a)">
                <path fill="url(#paint1_linear)" d="M75.053 68.3l-42.25-23.384L57.198.339l42.25 23.41L75.053 68.3z" opacity=".2"/>
            </g>
        </g>
        <path fill="#5EC9F3" d="M49.49 98s-16.323-13.597-5.086-25.655l23.72-22.262s15.987-12.788 5.32-24.298L87.77 41.184s10.562 10.778-3.763 24.193L49.49 98z"/>
        <path fill="#116B93" d="M18.478 43.872l23.59 24.167S31.22 83.463 17.673 71.797c0 0-2.44-2.505-4.204-5.272-2.88-4.463-4.775-11.274 5.009-22.653z"/>
        <g opacity=".2">
            <mask id="n1rr64rz3b" width="49" height="53" x="1" y="37" maskUnits="userSpaceOnUse">
                <path fill="url(#paint2_linear)" d="M9.966 37.451l39.628 7.934-8.797 44.498-39.63-7.934 8.799-44.498z" opacity=".2"/>
            </mask>
            <g mask="url(#n1rr64rz3b)">
                <path fill="url(#paint3_linear)" d="M9.966 37.451l39.628 7.934-8.797 44.498-39.63-7.934 8.799-44.498z" opacity=".2"/>
            </g>
        </g>
        <path fill="#2B81AA" d="M42.018 0s16.324 13.597 5.087 25.655l-23.72 22.288s-15.987 12.788-5.32 24.298L3.738 56.843s-10.563-10.78 3.763-24.194L42.018 0zM105.858 38.547h2.777v20.906h9.109l-.363 2.348h-11.523V38.547zM122.753 37.608c.597 0 1.09.209 1.479.6.39.392.597.888.597 1.462s-.207 1.07-.597 1.461c-.389.392-.882.6-1.479.6-.597 0-1.09-.208-1.479-.6-.389-.391-.597-.887-.597-1.435 0-.6.208-1.07.571-1.488.389-.391.908-.6 1.505-.6zm-1.427 7.36l2.751-.444v17.277h-2.751V44.968zM140.219 45.594l-.986 1.957c-.883-.417-1.609-.73-2.206-.939-.597-.183-1.272-.287-1.973-.287-.96 0-1.738.26-2.283.757-.571.496-.857 1.174-.857 2.01 0 .652.182 1.174.545 1.565.364.392.986.679 1.869.862l2.206.47c2.984.626 4.463 2.192 4.463 4.697 0 1.644-.596 2.975-1.764 3.993-1.168 1.018-2.699 1.514-4.568 1.514-2.258 0-4.334-.574-6.176-1.697l1.012-1.93c1.739 1.043 3.503 1.565 5.32 1.565 1.038 0 1.868-.261 2.465-.809.623-.522.935-1.227.935-2.114 0-1.462-.935-2.401-2.751-2.766l-2.076-.444c-2.829-.574-4.257-2.14-4.257-4.62 0-1.54.545-2.792 1.661-3.732 1.116-.965 2.544-1.435 4.282-1.435 1.869.026 3.582.496 5.139 1.383zM147.07 37.608c.597 0 1.09.209 1.479.6.39.392.597.888.597 1.462s-.207 1.07-.597 1.461c-.389.392-.882.6-1.479.6-.597 0-1.09-.208-1.479-.6-.389-.391-.597-.887-.597-1.435 0-.6.208-1.07.571-1.488.389-.391.908-.6 1.505-.6zm-1.427 7.36l2.751-.444v17.277h-2.751V44.968zM164.951 46.273l-1.453 1.827c-.623-.522-1.168-.888-1.609-1.07-.441-.183-.96-.288-1.609-.288s-1.272.157-1.843.496c-.571.34-1.09.94-1.557 1.827-.467.888-.701 2.584-.701 5.09 0 1.905.364 3.34 1.064 4.358.701 1.018 1.739 1.514 3.089 1.514 1.401 0 2.595-.6 3.607-1.827l1.453 1.696c-1.453 1.488-3.166 2.218-5.112 2.218-2.388 0-4.152-.808-5.268-2.453-1.142-1.644-1.713-3.654-1.713-6.08 0-1.75.207-3.159.649-4.28.441-1.123 1.167-2.193 2.231-3.263 1.064-1.07 2.466-1.618 4.205-1.618.986 0 1.816.156 2.465.443.623.314 1.324.783 2.102 1.41zM169.078 37.504l2.621-.496c.104.391.181.887.285 1.54.104.652.156 1.461.156 2.453v20.8h-2.621V40.975c0-1.149-.052-1.958-.156-2.454-.078-.47-.182-.809-.285-1.017zm9.55 7.386h3.322l-6.592 7.307 8.123 9.578h-3.504l-7.733-9.578 6.384-7.308zM187.971 37.608c.597 0 1.09.209 1.479.6.389.392.597.888.597 1.462s-.208 1.07-.597 1.461c-.389.392-.882.6-1.479.6-.597 0-1.09-.208-1.48-.6-.389-.391-.596-.887-.596-1.435 0-.6.181-1.07.57-1.488.39-.391.883-.6 1.506-.6zm-1.428 7.36l2.751-.444v17.277h-2.751V44.968zM203.464 38.547h2.777v20.906h9.135l-.389 2.348h-11.523V38.547zM220.359 37.608c.597 0 1.09.209 1.479.6.389.392.597.888.597 1.462s-.208 1.07-.597 1.461c-.389.392-.882.6-1.479.6-.597 0-1.09-.208-1.479-.6-.39-.391-.597-.887-.597-1.435 0-.6.181-1.07.571-1.488.389-.391.908-.6 1.505-.6zm-1.428 7.36l2.751-.444v17.277h-2.751V44.968zM234.866 44.89l-.805 2.01h-3.503v10.882c0 .94.156 1.592.467 1.958.312.365.857.548 1.687.548.649 0 1.194-.105 1.661-.34l.363 1.697c-.856.443-1.842.678-2.958.678-.779 0-1.609-.209-2.492-.626-.882-.418-1.323-1.488-1.323-3.21V46.899h-2.18v-2.01h2.18c0-.678.026-1.409.078-2.192.052-.783.103-1.487.181-2.114l2.751-.6c-.078.652-.156 1.41-.233 2.244-.078.836-.104 1.723-.104 2.689l4.23-.026zM236.215 45.02l2.725-.6 3.893 11.64c.182.548.338 1.096.467 1.696.13.574.26.992.312 1.2.078-.339.207-.756.337-1.226.13-.47.312-1.018.519-1.618l3.867-11.223h2.803l-6.306 17.043h-2.596l-6.021-16.912zM256.328 37.608c.597 0 1.09.209 1.48.6.389.392.597.888.597 1.462s-.208 1.07-.597 1.461c-.39.392-.883.6-1.48.6s-1.09-.208-1.479-.6c-.389-.391-.597-.887-.597-1.435 0-.6.182-1.07.571-1.488.415-.391.908-.6 1.505-.6zm-1.427 7.36l2.751-.444v17.277h-2.751V44.968zM263.024 45.177l2.569-.679c.156.313.286.679.441 1.122.13.418.208.94.208 1.514 1.713-1.749 3.478-2.636 5.268-2.636.883 0 1.713.209 2.466.653.752.443 1.271 1.017 1.583 1.696.311.678.467 1.383.467 2.088V61.8h-2.673V50.344c0-.94-.026-1.54-.104-1.853-.078-.313-.259-.652-.597-1.07-.337-.417-.934-.626-1.765-.626-.7 0-1.479.235-2.387.678-.908.444-1.635 1.018-2.284 1.697V61.8h-2.569V48.752c0-1.044-.078-1.8-.208-2.323-.13-.522-.259-.94-.415-1.252zM156.672 75.06c0 .913-.051 1.617-.129 2.087-.078.47-.26.888-.467 1.305l2.076 2.088h-1.713l-1.09-1.07c-.312.392-.779.705-1.35.94-.571.234-1.193.365-1.868.365-1.168 0-2.102-.261-2.777-.835-.675-.574-1.038-1.305-1.038-2.219 0-.678.182-1.226.571-1.644.363-.417.96-.835 1.739-1.2-.545-.496-.961-.94-1.194-1.331-.26-.392-.389-.81-.389-1.2 0-.758.285-1.358.882-1.88.571-.496 1.272-.73 2.05-.73.857 0 1.557.234 2.154.678.571.444.857 1.07.857 1.853 0 .6-.182 1.096-.545 1.461-.364.392-.961.81-1.791 1.253l2.647 2.61c.156-.313.234-.73.26-1.227.025-.496.025-.94.025-1.305h1.09zm-5.294.495c-1.09.522-1.661 1.28-1.661 2.297 0 .574.208 1.044.649 1.41.441.365 1.038.521 1.791.521.519 0 1.012-.104 1.453-.287.441-.209.805-.444 1.012-.73l-3.244-3.21zm2.18-3.314c0-.47-.156-.835-.441-1.149-.285-.287-.675-.443-1.142-.443-.441 0-.804.13-1.09.365-.311.235-.467.627-.467 1.122 0 .34.078.653.26.888.181.26.57.652 1.219 1.2.623-.287 1.038-.6 1.298-.913.233-.261.363-.653.363-1.07zM168.169 69.24l3.711 11.326h-1.531l-1.064-3.497h-4.178l-1.09 3.497h-1.376l3.763-11.327h1.765zm.779 6.733l-1.713-5.533-1.765 5.533h3.478zM178.42 72.684l-.467.966c-.415-.209-.778-.365-1.09-.444-.285-.104-.623-.156-.96-.156-.467 0-.831.13-1.116.365-.285.235-.415.574-.415.992 0 .313.078.574.259.757.182.183.493.34.909.417l1.09.235c1.453.313 2.18 1.07 2.18 2.297 0 .809-.286 1.461-.857 1.931-.571.496-1.297.731-2.232.731-1.116 0-2.102-.261-3.01-.835l.493-.94c.83.496 1.713.757 2.595.757.493 0 .908-.13 1.194-.391.311-.261.441-.6.441-1.044 0-.705-.441-1.175-1.349-1.357l-1.012-.21c-1.376-.286-2.077-1.043-2.077-2.244 0-.757.286-1.357.805-1.827.545-.47 1.246-.704 2.102-.704.934.026 1.765.26 2.517.704zM184 72.084c.649 0 1.194.13 1.661.392.467.26.882.678 1.298 1.278.415.6.596 1.54.596 2.845 0 1.331-.311 2.375-.96 3.106-.649.73-1.479 1.096-2.543 1.096-1.116 0-1.972-.391-2.595-1.174-.623-.783-.935-1.853-.935-3.21 0-1.332.312-2.376.935-3.158.623-.783 1.479-1.175 2.543-1.175zm0 1.044c-.363 0-.701.078-1.012.235-.312.157-.545.444-.753.835-.207.392-.311 1.07-.311 1.958 0 .6.052 1.122.13 1.591.077.47.207.836.363 1.07.156.236.389.444.701.6.311.157.622.236.986.236.882 0 1.453-.314 1.687-.966.233-.652.337-1.33.337-2.062 0-1.122-.104-1.905-.311-2.349-.208-.417-.467-.73-.779-.913-.337-.13-.701-.235-1.038-.235zM195.211 72.998l-.7.887c-.312-.261-.571-.418-.779-.522-.208-.078-.467-.13-.779-.13-.311 0-.622.078-.908.234-.285.157-.545.47-.752.888-.234.417-.338 1.252-.338 2.48 0 .913.182 1.617.519 2.113.338.496.857.73 1.505.73.675 0 1.272-.286 1.765-.886l.701.835c-.701.73-1.531 1.096-2.492 1.096-1.167 0-2.024-.392-2.569-1.2-.545-.81-.83-1.775-.83-2.95 0-.861.104-1.54.311-2.088.208-.548.571-1.07 1.09-1.592.519-.522 1.194-.783 2.05-.783.493 0 .883.079 1.194.209.286.157.649.391 1.012.679zM198.144 68.796c.285 0 .519.104.727.287.181.183.285.444.285.704 0 .261-.104.522-.285.705-.182.209-.442.287-.727.287-.286 0-.519-.104-.727-.287-.181-.183-.285-.417-.285-.705 0-.287.104-.522.285-.73.182-.183.415-.261.727-.261zm-.701 3.575l1.35-.209v8.404h-1.35v-8.195zM201.414 73.233c1.116-.731 2.258-1.097 3.425-1.097 1.168 0 1.843.261 2.051.783.207.522.337.94.363 1.28.026.312.026.678.026 1.043l-.078 2.714c0 .705.026 1.175.104 1.41.078.234.259.443.545.6l-.649.913c-.597-.182-.96-.6-1.116-1.2-.726.757-1.531 1.122-2.361 1.122-.909 0-1.584-.235-1.999-.678-.415-.444-.623-1.018-.623-1.67 0-.94.39-1.671 1.142-2.193.753-.522 1.817-.783 3.192-.783l.571.026v-.6c0-.313 0-.574-.026-.757-.026-.183-.129-.392-.337-.626-.208-.235-.545-.34-1.012-.34-.467 0-.934.105-1.427.287-.494.21-.883.418-1.168.679l-.623-.913zm4.619 3.131l-.649-.026c-1.012 0-1.738.157-2.179.496-.442.34-.649.835-.649 1.488 0 1.017.467 1.513 1.401 1.513.415 0 .805-.104 1.168-.339.363-.235.623-.548.83-.94l.078-2.192zM216.336 68.717v9.187c0 1.331.078 2.219.26 2.662h-1.324c-.052-.104-.104-.209-.155-.365-.052-.157-.078-.313-.078-.47-.545.626-1.272.966-2.154.966-1.064 0-1.869-.366-2.44-1.097-.571-.73-.856-1.748-.856-3.08 0-1.748.389-2.922 1.22-3.47.804-.574 1.479-.835 2.05-.835.96 0 1.687.339 2.206 1.044l-.026-1.28v-3.47l1.297.208zm-1.271 5.377c-.208-.287-.468-.522-.805-.653-.311-.13-.727-.209-1.194-.209-.674 0-1.142.21-1.427.653-.286.444-.441.835-.519 1.174-.078.34-.104.81-.104 1.384 0 .522.026.94.078 1.278.052.34.182.731.441 1.175.234.444.727.652 1.479.652.338 0 .597-.026.831-.104.207-.078.441-.183.675-.365.233-.183.363-.314.441-.418.078-.104.104-.183.13-.235l-.026-4.332zM222.201 72.084c.649 0 1.194.13 1.661.392.467.26.883.678 1.298 1.278.389.6.597 1.54.597 2.845 0 1.331-.312 2.375-.96 3.106-.649.73-1.48 1.096-2.544 1.096-1.116 0-1.972-.391-2.595-1.174-.623-.783-.934-1.853-.934-3.21 0-1.332.311-2.376.934-3.158.649-.783 1.479-1.175 2.543-1.175zm0 1.044c-.363 0-.7.078-1.012.235-.311.157-.545.444-.752.835-.208.392-.312 1.07-.312 1.958 0 .6.052 1.122.13 1.591.078.47.208.836.363 1.07.156.262.39.444.701.6.311.157.623.236.986.236.883 0 1.454-.314 1.687-.966.234-.652.337-1.33.337-2.062 0-1.122-.103-1.905-.311-2.349-.208-.417-.467-.73-.779-.913-.337-.13-.674-.235-1.038-.235zM233.231 72.684l-.467.966c-.415-.209-.779-.365-1.09-.444-.286-.104-.623-.156-.96-.156-.467 0-.831.13-1.116.365-.286.235-.415.574-.415.992 0 .313.077.574.259.757.182.183.493.34.908.417l1.09.235c1.454.313 2.18 1.07 2.18 2.297 0 .809-.285 1.461-.856 1.931-.571.496-1.298.731-2.232.731-1.116 0-2.102-.261-3.01-.835l.493-.94c.83.496 1.712.757 2.595.757.493 0 .908-.13 1.194-.391.311-.261.441-.6.441-1.044 0-.705-.441-1.175-1.35-1.357l-1.012-.21c-1.375-.286-2.076-1.043-2.076-2.244 0-.757.286-1.357.805-1.827.545-.47 1.245-.704 2.102-.704.908.026 1.738.26 2.517.704z"/>
    </g>
    <defs>
        <linearGradient id="paint0_linear" x1="78.532" x2="51.366" y1="41.2" y2="26.329" gradientUnits="userSpaceOnUse">
            <stop/>
            <stop offset=".07"/>
            <stop offset=".152" stop-color="#282828"/>
            <stop offset=".28" stop-color="#606060"/>
            <stop offset=".409" stop-color="#919191"/>
            <stop offset=".535" stop-color="#B9B9B9"/>
            <stop offset=".659" stop-color="#D7D7D7"/>
            <stop offset=".779" stop-color="#EDEDED"/>
            <stop offset=".895" stop-color="#FBFBFB"/>
            <stop offset="1" stop-color="#fff"/>
        </linearGradient>
        <linearGradient id="paint1_linear" x1="78.537" x2="51.37" y1="41.202" y2="26.331" gradientUnits="userSpaceOnUse">
            <stop stop-color="#28A6DE"/>
            <stop offset=".07" stop-color="#28A6DE"/>
            <stop offset=".211" stop-color="#60BDE7"/>
            <stop offset=".352" stop-color="#91D1EE"/>
            <stop offset=".49" stop-color="#B8E2F4"/>
            <stop offset=".626" stop-color="#D7EFF9"/>
            <stop offset=".758" stop-color="#EDF8FC"/>
            <stop offset=".885" stop-color="#FBFDFE"/>
            <stop offset="1" stop-color="#fff"/>
        </linearGradient>
        <linearGradient id="paint2_linear" x1="10.982" x2="41.331" y1="60.789" y2="66.789" gradientUnits="userSpaceOnUse">
            <stop/>
            <stop offset=".07"/>
            <stop offset=".152" stop-color="#282828"/>
            <stop offset=".28" stop-color="#606060"/>
            <stop offset=".409" stop-color="#919191"/>
            <stop offset=".535" stop-color="#B9B9B9"/>
            <stop offset=".659" stop-color="#D7D7D7"/>
            <stop offset=".779" stop-color="#EDEDED"/>
            <stop offset=".895" stop-color="#FBFBFB"/>
            <stop offset="1" stop-color="#fff"/>
        </linearGradient>
        <linearGradient id="paint3_linear" x1="10.982" x2="41.331" y1="60.789" y2="66.789" gradientUnits="userSpaceOnUse">
            <stop stop-color="#28A6DE"/>
            <stop offset=".07" stop-color="#28A6DE"/>
            <stop offset=".211" stop-color="#60BDE7"/>
            <stop offset=".352" stop-color="#91D1EE"/>
            <stop offset=".49" stop-color="#B8E2F4"/>
            <stop offset=".626" stop-color="#D7EFF9"/>
            <stop offset=".758" stop-color="#EDF8FC"/>
            <stop offset=".885" stop-color="#FBFDFE"/>
            <stop offset="1" stop-color="#fff"/>
        </linearGradient>
        <clipPath id="clip0">
            <path fill="#fff" d="M0 0H276V98H0z"/>
        </clipPath>
    </defs>
</svg>
